<?xml version="1.0"?>
<svg xmlns="http://www.w3.org/2000/svg" xmlns:xlink="http://www.w3.org/1999/xlink" xmlns:svgjs="http://svgjs.com/svgjs" version="1.1" width="512" height="512" x="0" y="0" viewBox="0 0 512 512" style="enable-background:new 0 0 512 512" xml:space="preserve" class=""><g><g xmlns="http://www.w3.org/2000/svg"><path d="m511.963 476.225c-1.127-44.972-28.842-84.77-69.525-102.684l.972-194.641c0-98.646-84.265-178.9-187.841-178.9s-187.842 80.254-187.842 178.901l.006 195.474c-39.68 18.29-66.586 57.558-67.695 101.849-.025.978-.038 1.96-.038 2.943v17.803c0 8.301 6.727 15.03 15.025 15.03h481.95c8.298 0 15.025-6.729 15.025-15.03v-17.803c0-.983-.013-1.965-.037-2.942zm-256.394-446.165c87.006 0 157.791 66.769 157.791 148.765l-.928 185.497-75.815-18.682-3.241-.799c25.435-22.201 41.534-54.848 41.534-91.188v-88.123c0-4.778-2.271-9.271-6.118-12.104-3.847-2.832-8.812-3.665-13.372-2.247-44.873 13.968-81.114 10.216-107.716-11.149-19.984-16.049-27.393-36.779-27.56-37.257-2.064-6.102-7.787-10.213-14.233-10.213-40.223 0-72.947 32.734-72.947 72.97v88.123c0 36.775 16.488 69.766 42.453 91.978l-.035.009-77.6 19.122-.005-185.862c0-82.071 70.785-148.84 157.792-148.84zm59.364 341.195c-8.835 24.265-32.219 41.302-58.933 41.302s-50.098-17.036-58.933-41.302l15.603-3.845c12.884 4.692 26.782 7.255 41.268 7.255 15.101 0 29.56-2.79 42.9-7.869zm-60.995-26.651c-50.135 0-90.922-40.801-90.922-90.951v-88.123c0-20.466 14.399-37.632 33.596-41.894 5.206 10.162 14.906 25.471 30.949 38.749 36.648 30.328 81.244 30.466 117.299 22.651v68.618c0 50.15-40.787 90.95-90.922 90.95zm228.012 137.336h-451.9v-2.773c0-.73.009-1.459.027-2.189.96-38.257 28.076-71.493 65.945-80.825l71.763-17.683c12.193 37.51 47.598 64.146 88.215 64.146s76.022-26.636 88.215-64.146l71.763 17.683c37.868 9.332 64.985 42.568 65.945 80.828.019.727.027 1.456.027 2.186z" fill="#ff416e" data-original="#000000" style=""/><path d="m407.844 421.961h-50.145c-8.298 0-15.025 6.729-15.025 15.03s6.727 15.03 15.025 15.03h50.145c8.298 0 15.025-6.729 15.025-15.03s-6.727-15.03-15.025-15.03z" fill="#ff416e" data-original="#000000" style=""/><path d="m284.844 253.265c-8.298 0-15.025 6.729-15.025 15.03 0 7.86-6.393 14.255-14.25 14.255s-14.249-6.395-14.249-14.255c0-8.301-6.727-15.03-15.025-15.03s-15.025 6.729-15.025 15.03c0 24.435 19.873 44.315 44.3 44.315 24.428 0 44.301-19.88 44.301-44.315-.001-8.301-6.729-15.03-15.027-15.03z" fill="#ff416e" data-original="#000000" style=""/></g></g></svg>
