<?xml version="1.0"?>
<svg xmlns="http://www.w3.org/2000/svg" xmlns:xlink="http://www.w3.org/1999/xlink" xmlns:svgjs="http://svgjs.com/svgjs" version="1.1" width="512" height="512" x="0" y="0" viewBox="0 0 512.001 512.001" style="enable-background:new 0 0 512 512" xml:space="preserve" class=""><g>
<g xmlns="http://www.w3.org/2000/svg">
	<g>
		<path d="M420.166,179.946v292.161H91.843V178.224H57.403v311.103c0,9.511,7.709,17.22,17.22,17.22h362.762    c9.511,0,17.22-7.709,17.22-17.22V179.946H420.166z" fill="#787878" data-original="#000000" style=""/>
	</g>
</g>
<g xmlns="http://www.w3.org/2000/svg">
	<g>
		<path d="M506.092,215.758L269.608,9.695c-6.44-5.614-16.014-5.66-22.5-0.109L6.031,215.648c-7.227,6.176-8.082,17.048-1.9,24.274    c3.409,3.989,8.237,6.033,13.098,6.033c3.961,0,7.938-1.355,11.181-4.133L258.191,45.42l225.28,196.299    c7.163,6.251,18.046,5.505,24.291-1.67C514.013,232.88,513.261,222.003,506.092,215.758z" fill="#787878" data-original="#000000" style=""/>
	</g>
</g>
<g xmlns="http://www.w3.org/2000/svg">
	<g>
		<path d="M380.222,269.552c0-0.017-0.006-0.04-0.011-0.057c-8.024-39.404-36.954-64.867-73.695-64.867    c-16.588,0-33.688,5.275-50.018,15.349c-17.162-10.573-34.078-15.922-50.431-15.922c-36.965,0-66.612,26.444-73.723,65.578    c-10.441,53.484,20.922,124.263,114.465,162.009c3.834,1.756,6.957,2.009,9.769,2.009c2.83,0,5.975-0.258,9.844-2.043    C359.724,393.086,390.817,322.497,380.222,269.552z M256.538,398.401c-72.897-30.605-98.009-83.148-90.352-122.386    c4.207-23.149,19.487-37.522,39.881-37.522c11.951,0,25.893,5.596,40.329,16.175c6.147,4.506,14.51,4.448,20.595-0.166    c13.311-10.096,26.978-15.435,39.531-15.435c20.25,0,35.186,13.936,39.944,37.275    C353.904,313.629,328.821,367.297,256.538,398.401z" fill="#787878" data-original="#000000" style=""/>
	</g>
</g>
<g xmlns="http://www.w3.org/2000/svg">
</g>
<g xmlns="http://www.w3.org/2000/svg">
</g>
<g xmlns="http://www.w3.org/2000/svg">
</g>
<g xmlns="http://www.w3.org/2000/svg">
</g>
<g xmlns="http://www.w3.org/2000/svg">
</g>
<g xmlns="http://www.w3.org/2000/svg">
</g>
<g xmlns="http://www.w3.org/2000/svg">
</g>
<g xmlns="http://www.w3.org/2000/svg">
</g>
<g xmlns="http://www.w3.org/2000/svg">
</g>
<g xmlns="http://www.w3.org/2000/svg">
</g>
<g xmlns="http://www.w3.org/2000/svg">
</g>
<g xmlns="http://www.w3.org/2000/svg">
</g>
<g xmlns="http://www.w3.org/2000/svg">
</g>
<g xmlns="http://www.w3.org/2000/svg">
</g>
<g xmlns="http://www.w3.org/2000/svg">
</g>
</g></svg>
